<?xml version="1.0" encoding="UTF-8"?>
<svg id="Layer_2" data-name="Layer 2" xmlns="http://www.w3.org/2000/svg" xmlns:xlink="http://www.w3.org/1999/xlink" viewBox="0 0 329.42 133.11">
  <defs>
    <style>
      .cls-1 {
        fill: none;
        stroke: #f15858;
        stroke-linecap: round;
        stroke-miterlimit: 10;
        stroke-width: 15px;
      }

      .cls-2 {
        fill: url(#linear-gradient);
      }

      .cls-2, .cls-3, .cls-4, .cls-5 {
        stroke-width: 0px;
      }

      .cls-3 {
        fill: #2ab261;
      }

      .cls-4 {
        fill: #fff;
      }

      .cls-5 {
        fill: #0071b9;
      }
    </style>
    <linearGradient id="linear-gradient" x1="6.76" y1="19.94" x2="322.7" y2="113.19" gradientUnits="userSpaceOnUse">
      <stop offset="0" stop-color="#b6e4fa"/>
      <stop offset="1" stop-color="#7e84c0"/>
    </linearGradient>
  </defs>
  <g id="Layer_1-2" data-name="Layer 1">
    <rect class="cls-2" width="329.42" height="133.11" rx="32.37" ry="32.37"/>
    <g>
      <path class="cls-4" d="m162.86,69.99c-3.61-1.38-6.06-2.82-7.34-4.34-1.28-1.51-1.92-3.55-1.92-6.11,0-3.29,1.05-5.87,3.16-7.75,2.11-1.88,5-2.82,8.68-2.82,1.67,0,3.34.19,5.01.57,1.56.36,3.11.87,4.64,1.55.19.09.32.28.32.49v5.67c0,.42-.47.66-.82.43-1.27-.82-2.56-1.46-3.87-1.93-1.59-.57-3.16-.85-4.72-.85-1.73,0-3.06.35-3.99,1.04-.92.7-1.39,1.69-1.39,2.99,0,1,.34,1.83,1.01,2.49s2.08,1.38,4.22,2.18l3.09,1.17c2.92,1.07,5.06,2.49,6.44,4.25,1.38,1.77,2.07,4,2.07,6.68,0,3.66-1.08,6.4-3.25,8.2-2.16,1.81-5.43,2.71-9.81,2.71-1.8,0-3.6-.21-5.41-.64-1.7-.4-3.35-.99-4.94-1.76-.18-.09-.3-.28-.3-.48v-6.08c0-.42.47-.67.83-.43,1.62,1.08,3.2,1.9,4.73,2.47,1.79.67,3.56,1,5.31,1s3.14-.4,4.11-1.2c.97-.8,1.46-1.92,1.46-3.37,0-1.08-.32-2.04-.97-2.86-.65-.82-1.59-1.46-2.82-1.93l-3.52-1.34Z"/>
      <path class="cls-4" d="m183.05,49.63h7.63c.24,0,.45.16.51.39l3.71,13.66c.14.52.88.52,1.02,0l3.69-13.65c.06-.23.27-.39.51-.39h7.67c.29,0,.53.24.53.53v35.24c0,.29-.24.53-.53.53h-5.12c-.29,0-.53-.24-.53-.53v-24.13c0-.62-.89-.73-1.04-.12l-2.7,11.17c-.06.24-.27.4-.51.4h-4.88c-.24,0-.45-.17-.51-.4l-2.75-11.23c-.15-.61-1.04-.5-1.04.13v24.18c0,.29-.24.53-.53.53h-5.12c-.29,0-.53-.24-.53-.53v-35.24c0-.29.24-.53.53-.53Z"/>
      <path class="cls-4" d="m214.58,55.42v-5.27c0-.29.24-.53.53-.53h20.55c.29,0,.53.24.53.53v5.27c0,.29-.24.53-.53.53h-6.17c-.29,0-.53.24-.53.53v22.6c0,.29.24.53.53.53h6.17c.29,0,.53.24.53.53v5.27c0,.29-.24.53-.53.53h-20.55c-.29,0-.53-.24-.53-.53v-5.27c0-.29.24-.53.53-.53h6.17c.29,0,.53-.24.53-.53v-22.6c0-.29-.24-.53-.53-.53h-6.17c-.29,0-.53-.24-.53-.53Z"/>
      <path class="cls-4" d="m245.84,85.39v-35.24c0-.29.24-.53.53-.53h6.12c.29,0,.53.24.53.53v28.92c0,.29.24.53.53.53h14.28c.29,0,.53.24.53.53v5.27c0,.29-.24.53-.53.53h-21.45c-.29,0-.53-.24-.53-.53Z"/>
      <path class="cls-4" d="m297.13,84.22c0,.22-.13.42-.34.5-1.55.61-3.12,1.08-4.72,1.4-1.72.34-3.53.51-5.45.51-4.55,0-8.03-1.22-10.44-3.66s-3.61-5.95-3.61-10.54,1.16-7.95,3.48-10.52c2.32-2.58,5.48-3.87,9.48-3.87s7.17,1.2,9.39,3.58c2.23,2.39,3.34,5.76,3.34,10.1v2.37c0,.29-.24.53-.53.53h-17.37c-.3,0-.55.26-.53.56.11,1.86.74,3.27,1.88,4.23,1.25,1.05,3.11,1.58,5.59,1.58,1.64,0,3.25-.23,4.84-.71,1.35-.4,2.75-.99,4.2-1.79.35-.19.79.05.79.45v5.28Zm-6.58-14.95c.3,0,.55-.26.53-.56-.11-1.6-.59-2.84-1.42-3.71-.93-.96-2.31-1.45-4.12-1.45-1.64,0-2.94.5-3.91,1.5-.86.88-1.41,2.1-1.65,3.64-.05.32.21.6.53.6l10.05-.02Z"/>
    </g>
    <g>
      <path class="cls-1" d="m36.2,78.58c14.89,14.21,36.32,17.85,53.14,9.42,18.9-9.47,23.23-29.8,23.74-32.41"/>
      <rect class="cls-5" x="38.27" y="39.48" width="22.12" height="22.12" rx="3.42" ry="3.42" transform="translate(-13.8 18.88) rotate(-19.06)"/>
      <path class="cls-3" d="m76.43,36.24l3.7,17.9c.49,2.38,3.38,3.32,5.18,1.7l14.1-12.73c1.83-1.65,1.13-4.66-1.23-5.35l-17.8-5.17c-2.27-.66-4.43,1.34-3.95,3.65Z"/>
    </g>
  </g>
</svg>